<svg width="156" height="238" viewBox="0 0 156 238" fill="none" xmlns="http://www.w3.org/2000/svg">
<path d="M44.25 33.25C62.6135 14.8865 92.3865 14.8865 110.75 33.25C129.113 51.6135 129.113 81.3865 110.75 99.75L87.3995 123.101C81.9322 128.568 73.0678 128.568 67.6005 123.101L44.25 99.75C25.8865 81.3865 25.8865 51.6135 44.25 33.25Z" fill="white"/>
<ellipse cx="77.2699" cy="64.7693" rx="21.2699" ry="25.7693" stroke="#111827" stroke-width="4.37805"/>
<path d="M77.3792 39C78.3315 39.1606 80.4506 41.0234 81.3077 47.1898C82.3791 54.8979 66.665 67.4235 73.0935 82.3579" stroke="#111827" stroke-width="4.37805"/>
<path d="M74.8157 85.6302C76.4518 87.8117 80.7058 91.5203 84.6326 88.9025" stroke="#111827" stroke-width="4.37805"/>
<path d="M17.3906 183.891C14.9531 183.891 12.6719 183.5 10.5469 182.719C8.42188 181.922 6.57031 180.773 4.99219 179.273C3.44531 177.805 2.22656 175.992 1.33594 173.836C0.445312 171.664 0 169.281 0 166.688C0 164.109 0.445312 161.727 1.33594 159.539C2.24219 157.336 3.50781 155.43 5.13281 153.82C6.72656 152.242 8.64062 151.023 10.875 150.164C13.1094 149.289 15.5 148.852 18.0469 148.852C19.8906 148.852 21.5703 149.078 23.0859 149.531C24.6016 149.969 25.8828 150.469 26.9297 151.031L28.3828 149.742H30.4219L30.6328 161.883H28.5703C27.3984 158.18 25.9922 155.461 24.3516 153.727C22.7109 151.992 20.7109 151.125 18.3516 151.125C15.4141 151.125 13.1797 152.422 11.6484 155.016C10.1172 157.594 9.35156 161.219 9.35156 165.891C9.35156 168.531 9.60938 170.789 10.125 172.664C10.6562 174.523 11.3438 176.023 12.1875 177.164C13.0938 178.352 14.1641 179.227 15.3984 179.789C16.6328 180.336 18 180.609 19.5 180.609C21.6875 180.609 23.6328 180.016 25.3359 178.828C27.0547 177.641 28.6172 175.844 30.0234 173.438L32.0391 174.656C31.3672 176.031 30.6016 177.266 29.7422 178.359C28.8828 179.438 27.8906 180.367 26.7656 181.148C25.5312 182.008 24.1641 182.68 22.6641 183.164C21.1797 183.648 19.4219 183.891 17.3906 183.891Z" fill="white"/>
<path d="M57.9844 162.516C59.1406 163.594 60.0234 164.883 60.6328 166.383C61.2422 167.883 61.5469 169.508 61.5469 171.258C61.5469 172.992 61.2422 174.633 60.6328 176.18C60.0391 177.711 59.1641 179.023 58.0078 180.117C56.7734 181.289 55.2969 182.188 53.5781 182.812C51.875 183.438 49.9219 183.75 47.7188 183.75C45.8125 183.75 44.0547 183.477 42.4453 182.93C40.8516 182.383 39.4375 181.562 38.2031 180.469C37.0156 179.422 36.0781 178.133 35.3906 176.602C34.7031 175.055 34.3594 173.328 34.3594 171.422C34.3594 169.547 34.6562 167.883 35.25 166.43C35.8594 164.961 36.7656 163.656 37.9688 162.516C39.125 161.422 40.5469 160.578 42.2344 159.984C43.9375 159.375 45.8359 159.07 47.9297 159.07C50.1172 159.07 52.0391 159.375 53.6953 159.984C55.3672 160.578 56.7969 161.422 57.9844 162.516ZM51.9844 178.758C52.3281 177.883 52.5781 176.82 52.7344 175.57C52.9062 174.32 52.9922 172.867 52.9922 171.211C52.9922 170.117 52.9141 168.867 52.7578 167.461C52.6016 166.055 52.3672 164.945 52.0547 164.133C51.6797 163.148 51.1562 162.375 50.4844 161.812C49.8281 161.25 48.9922 160.969 47.9766 160.969C46.8672 160.969 45.9766 161.273 45.3047 161.883C44.6484 162.492 44.1406 163.281 43.7812 164.25C43.4531 165.141 43.2266 166.188 43.1016 167.391C42.9766 168.578 42.9141 169.82 42.9141 171.117C42.9141 172.82 42.9688 174.234 43.0781 175.359C43.1875 176.469 43.4531 177.586 43.875 178.711C44.2344 179.68 44.75 180.445 45.4219 181.008C46.0938 181.57 46.9453 181.852 47.9766 181.852C48.9141 181.852 49.7188 181.594 50.3906 181.078C51.0625 180.547 51.5938 179.773 51.9844 178.758Z" fill="white"/>
<path d="M86.7422 150.68C86.7422 151.07 86.6797 151.5 86.5547 151.969C86.4297 152.438 86.2266 152.836 85.9453 153.164C85.6172 153.555 85.25 153.852 84.8438 154.055C84.4375 154.258 83.8281 154.359 83.0156 154.359C81.7812 154.359 80.8125 153.93 80.1094 153.07C79.4062 152.211 78.6562 150.781 77.8594 148.781C77.2344 149.047 76.7266 149.734 76.3359 150.844C75.9453 151.953 75.75 154.336 75.75 157.992V159.844H82.2188V162.375H75.7969V178.523C75.7969 179.133 75.9375 179.609 76.2188 179.953C76.5 180.281 76.8672 180.523 77.3203 180.68C77.6953 180.805 78.1875 180.93 78.7969 181.055C79.4062 181.164 79.9531 181.242 80.4375 181.289V183H64.6172V181.289C65.0234 181.258 65.4141 181.219 65.7891 181.172C66.1797 181.125 66.5234 181.047 66.8203 180.938C67.3203 180.75 67.6562 180.484 67.8281 180.141C68.0156 179.781 68.1094 179.312 68.1094 178.734V162.375H63.3516V159.844H68.1094C68.1094 158.172 68.3516 156.555 68.8359 154.992C69.3203 153.414 70.0703 152.008 71.0859 150.773C72.0703 149.555 73.3672 148.57 74.9766 147.82C76.5859 147.07 78.4766 146.695 80.6484 146.695C82.5859 146.695 84.0859 147.062 85.1484 147.797C86.2109 148.531 86.7422 149.492 86.7422 150.68Z" fill="white"/>
<path d="M105.633 150.68C105.633 151.07 105.57 151.5 105.445 151.969C105.32 152.438 105.117 152.836 104.836 153.164C104.508 153.555 104.141 153.852 103.734 154.055C103.328 154.258 102.719 154.359 101.906 154.359C100.672 154.359 99.7031 153.93 99 153.07C98.2969 152.211 97.5469 150.781 96.75 148.781C96.125 149.047 95.6172 149.734 95.2266 150.844C94.8359 151.953 94.6406 154.336 94.6406 157.992V159.844H101.109V162.375H94.6875V178.523C94.6875 179.133 94.8281 179.609 95.1094 179.953C95.3906 180.281 95.7578 180.523 96.2109 180.68C96.5859 180.805 97.0781 180.93 97.6875 181.055C98.2969 181.164 98.8438 181.242 99.3281 181.289V183H83.5078V181.289C83.9141 181.258 84.3047 181.219 84.6797 181.172C85.0703 181.125 85.4141 181.047 85.7109 180.938C86.2109 180.75 86.5469 180.484 86.7188 180.141C86.9062 179.781 87 179.312 87 178.734V162.375H82.2422V159.844H87C87 158.172 87.2422 156.555 87.7266 154.992C88.2109 153.414 88.9609 152.008 89.9766 150.773C90.9609 149.555 92.2578 148.57 93.8672 147.82C95.4766 147.07 97.3672 146.695 99.5391 146.695C101.477 146.695 102.977 147.062 104.039 147.797C105.102 148.531 105.633 149.492 105.633 150.68Z" fill="white"/>
<path d="M127.547 177.398C127 178.289 126.336 179.133 125.555 179.93C124.789 180.711 123.914 181.383 122.93 181.945C121.883 182.539 120.82 182.984 119.742 183.281C118.68 183.594 117.453 183.75 116.062 183.75C113.75 183.75 111.75 183.422 110.062 182.766C108.391 182.109 107.008 181.227 105.914 180.117C104.82 179.008 104 177.703 103.453 176.203C102.922 174.688 102.656 173.047 102.656 171.281C102.656 169.688 102.945 168.164 103.523 166.711C104.117 165.242 104.953 163.938 106.031 162.797C107.094 161.688 108.43 160.789 110.039 160.102C111.664 159.414 113.477 159.07 115.477 159.07C117.664 159.07 119.461 159.336 120.867 159.867C122.273 160.398 123.438 161.133 124.359 162.07C125.25 162.961 125.898 164.016 126.305 165.234C126.711 166.438 126.914 167.703 126.914 169.031V170.555H111.07C111.07 173.758 111.688 176.195 112.922 177.867C114.156 179.539 116.117 180.375 118.805 180.375C120.273 180.375 121.594 179.977 122.766 179.18C123.938 178.367 124.938 177.344 125.766 176.109L127.547 177.398ZM118.594 168.492C118.594 167.555 118.547 166.594 118.453 165.609C118.359 164.625 118.195 163.82 117.961 163.195C117.695 162.461 117.328 161.906 116.859 161.531C116.406 161.156 115.828 160.969 115.125 160.969C113.922 160.969 112.961 161.578 112.242 162.797C111.523 164.016 111.133 165.945 111.07 168.586L118.594 168.492Z" fill="white"/>
<path d="M155.016 177.398C154.469 178.289 153.805 179.133 153.023 179.93C152.258 180.711 151.383 181.383 150.398 181.945C149.352 182.539 148.289 182.984 147.211 183.281C146.148 183.594 144.922 183.75 143.531 183.75C141.219 183.75 139.219 183.422 137.531 182.766C135.859 182.109 134.477 181.227 133.383 180.117C132.289 179.008 131.469 177.703 130.922 176.203C130.391 174.688 130.125 173.047 130.125 171.281C130.125 169.688 130.414 168.164 130.992 166.711C131.586 165.242 132.422 163.938 133.5 162.797C134.562 161.688 135.898 160.789 137.508 160.102C139.133 159.414 140.945 159.07 142.945 159.07C145.133 159.07 146.93 159.336 148.336 159.867C149.742 160.398 150.906 161.133 151.828 162.07C152.719 162.961 153.367 164.016 153.773 165.234C154.18 166.438 154.383 167.703 154.383 169.031V170.555H138.539C138.539 173.758 139.156 176.195 140.391 177.867C141.625 179.539 143.586 180.375 146.273 180.375C147.742 180.375 149.062 179.977 150.234 179.18C151.406 178.367 152.406 177.344 153.234 176.109L155.016 177.398ZM146.062 168.492C146.062 167.555 146.016 166.594 145.922 165.609C145.828 164.625 145.664 163.82 145.43 163.195C145.164 162.461 144.797 161.906 144.328 161.531C143.875 161.156 143.297 160.969 142.594 160.969C141.391 160.969 140.43 161.578 139.711 162.797C138.992 164.016 138.602 165.945 138.539 168.586L146.062 168.492Z" fill="white"/>
<path d="M79.625 201.445C80.7812 202.523 81.6641 203.812 82.2734 205.312C82.8828 206.812 83.1875 208.438 83.1875 210.188C83.1875 211.922 82.8828 213.562 82.2734 215.109C81.6797 216.641 80.8047 217.953 79.6484 219.047C78.4141 220.219 76.9375 221.117 75.2188 221.742C73.5156 222.367 71.5625 222.68 69.3594 222.68C67.4531 222.68 65.6953 222.406 64.0859 221.859C62.4922 221.312 61.0781 220.492 59.8438 219.398C58.6562 218.352 57.7188 217.062 57.0312 215.531C56.3438 213.984 56 212.258 56 210.352C56 208.477 56.2969 206.812 56.8906 205.359C57.5 203.891 58.4062 202.586 59.6094 201.445C60.7656 200.352 62.1875 199.508 63.875 198.914C65.5781 198.305 67.4766 198 69.5703 198C71.7578 198 73.6797 198.305 75.3359 198.914C77.0078 199.508 78.4375 200.352 79.625 201.445ZM73.625 217.688C73.9688 216.812 74.2188 215.75 74.375 214.5C74.5469 213.25 74.6328 211.797 74.6328 210.141C74.6328 209.047 74.5547 207.797 74.3984 206.391C74.2422 204.984 74.0078 203.875 73.6953 203.062C73.3203 202.078 72.7969 201.305 72.125 200.742C71.4688 200.18 70.6328 199.898 69.6172 199.898C68.5078 199.898 67.6172 200.203 66.9453 200.812C66.2891 201.422 65.7812 202.211 65.4219 203.18C65.0938 204.07 64.8672 205.117 64.7422 206.32C64.6172 207.508 64.5547 208.75 64.5547 210.047C64.5547 211.75 64.6094 213.164 64.7188 214.289C64.8281 215.398 65.0938 216.516 65.5156 217.641C65.875 218.609 66.3906 219.375 67.0625 219.938C67.7344 220.5 68.5859 220.781 69.6172 220.781C70.5547 220.781 71.3594 220.523 72.0312 220.008C72.7031 219.477 73.2344 218.703 73.625 217.688Z" fill="white"/>
<path d="M84.6875 228.703C84.375 229.562 83.9531 230.445 83.4219 231.352C82.9062 232.258 82.3281 233.062 81.6875 233.766C80.8906 234.641 80.0234 235.344 79.0859 235.875C78.1641 236.391 77.1797 236.648 76.1328 236.648C74.9453 236.648 73.8594 236.445 72.875 236.039C71.9062 235.617 70.9688 235.141 70.0625 234.609C69.3438 234.172 68.5156 233.719 67.5781 233.25C66.6406 232.781 65.8047 232.547 65.0703 232.547C64.0391 232.547 63.1406 232.922 62.375 233.672C61.6094 234.406 60.875 235.586 60.1719 237.211L57.7344 236.227C57.9688 235.539 58.3359 234.734 58.8359 233.812C59.3516 232.891 59.9844 232.008 60.7344 231.164C61.4375 230.367 62.2656 229.688 63.2188 229.125C64.1875 228.562 65.2109 228.281 66.2891 228.281C67.5703 228.281 68.7031 228.508 69.6875 228.961C70.6875 229.398 71.5938 229.859 72.4062 230.344C73.2344 230.844 74.0469 231.312 74.8438 231.75C75.6562 232.172 76.4922 232.383 77.3516 232.383C78.4453 232.383 79.375 231.977 80.1406 231.164C80.9062 230.336 81.6094 229.188 82.25 227.719L84.6875 228.703Z" fill="white"/>
<path d="M45.1562 202.5C44.7188 202.547 44.0938 202.633 43.2812 202.758C42.4688 202.883 41.7344 203.188 41.0781 203.672C40.5 204.094 40.0859 204.82 39.8359 205.852C39.6016 206.867 39.4844 208.367 39.4844 210.352V234.117H35.3125L14.5938 208.406V224.016C14.5938 225.953 14.7188 227.43 14.9688 228.445C15.2344 229.445 15.6562 230.18 16.2344 230.648C16.6562 230.992 17.3281 231.297 18.25 231.562C19.1719 231.828 19.9062 232.008 20.4531 232.102V233.93H6.15625V232.102C6.76562 232.055 7.46094 231.945 8.24219 231.773C9.03906 231.586 9.70312 231.305 10.2344 230.93C10.8438 230.477 11.2578 229.797 11.4766 228.891C11.7109 227.969 11.8281 226.43 11.8281 224.273V208.523C11.8281 207.742 11.7031 207.008 11.4531 206.32C11.2188 205.617 10.8438 205.016 10.3281 204.516C9.78125 203.984 9.14844 203.57 8.42969 203.273C7.72656 202.961 6.92188 202.719 6.01562 202.547V200.672H18.5312L36.7188 223.172V210.586C36.7188 208.586 36.5859 207.102 36.3203 206.133C36.0547 205.148 35.6328 204.422 35.0547 203.953C34.6016 203.594 33.9297 203.289 33.0391 203.039C32.1484 202.773 31.4297 202.594 30.8828 202.5V200.672H45.1562V202.5Z" fill="white"/>
<path d="M150.184 202.547C149.7 202.594 149.216 202.703 148.731 202.875C148.247 203.031 147.77 203.234 147.302 203.484C146.583 203.891 146.067 204.336 145.755 204.82C145.458 205.305 145.184 205.891 144.934 206.578C144.075 208.953 142.747 212.758 140.95 217.992C139.169 223.227 137.309 228.664 135.372 234.305H130.661L121.872 209.578L113.95 234.305H109.239C106.63 226.711 104.63 220.867 103.239 216.773C101.848 212.664 100.677 209.219 99.7234 206.438C99.4266 205.594 99.0906 204.984 98.7156 204.609C98.3406 204.219 97.8562 203.828 97.2625 203.438C96.8406 203.156 96.3875 202.953 95.9031 202.828C95.4344 202.688 94.8875 202.578 94.2625 202.5V200.672H112.005V202.453C110.958 202.578 110.177 202.703 109.661 202.828C109.145 202.938 108.739 203.055 108.442 203.18C108.161 203.305 107.989 203.438 107.927 203.578C107.864 203.719 107.833 203.844 107.833 203.953C107.833 204.172 107.856 204.383 107.903 204.586C107.966 204.789 108.028 205.023 108.091 205.289C108.466 206.508 109.223 208.82 110.364 212.227C111.505 215.633 112.911 219.859 114.583 224.906L122.153 200.672H127.122L135.911 225.656C137.208 221.641 138.239 218.359 139.005 215.812C139.786 213.266 140.442 211.086 140.973 209.273C141.286 208.164 141.536 207.234 141.723 206.484C141.911 205.734 142.005 205.086 142.005 204.539C142.005 204.211 141.848 203.93 141.536 203.695C141.239 203.461 140.833 203.258 140.317 203.086C139.88 202.945 139.309 202.836 138.606 202.758C137.919 202.664 137.317 202.594 136.802 202.547V200.672H150.184V202.547Z" fill="white"/>
</svg>
