<svg width="32" height="32" viewBox="0 0 32 32" fill="none" xmlns="http://www.w3.org/2000/svg">
<path d="M25.3334 9.33329C25.3334 7.86663 24.1334 6.66663 22.6667 6.66663H18.6667V9.33329H22.6667V12.8666L18.0267 18.6666H13.3334V12H8.00002C5.05335 12 2.66669 14.3866 2.66669 17.3333V21.3333H5.33335C5.33335 23.5466 7.12002 25.3333 9.33335 25.3333C11.5467 25.3333 13.3334 23.5466 13.3334 21.3333H19.3067L25.3334 13.8V9.33329ZM5.33335 18.6666V17.3333C5.33335 15.8666 6.53335 14.6666 8.00002 14.6666H10.6667V18.6666H5.33335ZM9.33335 22.6666C8.60002 22.6666 8.00002 22.0666 8.00002 21.3333H10.6667C10.6667 22.0666 10.0667 22.6666 9.33335 22.6666Z" fill="#FF9314"/>
<path d="M6.66669 8H13.3334V10.6667H6.66669V8ZM25.3334 17.3333C23.12 17.3333 21.3334 19.12 21.3334 21.3333C21.3334 23.5467 23.12 25.3333 25.3334 25.3333C27.5467 25.3333 29.3334 23.5467 29.3334 21.3333C29.3334 19.12 27.5467 17.3333 25.3334 17.3333ZM25.3334 22.6667C24.6 22.6667 24 22.0667 24 21.3333C24 20.6 24.6 20 25.3334 20C26.0667 20 26.6667 20.6 26.6667 21.3333C26.6667 22.0667 26.0667 22.6667 25.3334 22.6667Z" fill="#FF9314"/>
</svg>
