<svg width="38" height="38" viewBox="0 0 38 38" fill="none" xmlns="http://www.w3.org/2000/svg">
<path d="M30.0833 11.0833C30.0833 9.34163 28.6583 7.91663 26.9167 7.91663H22.1667V11.0833H26.9167V15.2791L21.4067 22.1666H15.8333V14.25H9.49999C6.00082 14.25 3.16666 17.0841 3.16666 20.5833V25.3333H6.33332C6.33332 27.9616 8.45499 30.0833 11.0833 30.0833C13.7117 30.0833 15.8333 27.9616 15.8333 25.3333H22.9267L30.0833 16.3875V11.0833ZM6.33332 22.1666V20.5833C6.33332 18.8416 7.75832 17.4166 9.49999 17.4166H12.6667V22.1666H6.33332ZM11.0833 26.9166C10.2125 26.9166 9.49999 26.2041 9.49999 25.3333H12.6667C12.6667 26.2041 11.9542 26.9166 11.0833 26.9166Z" fill="white"/>
<path d="M7.91669 9.5H15.8334V12.6667H7.91669V9.5ZM30.0834 20.5833C27.455 20.5833 25.3334 22.705 25.3334 25.3333C25.3334 27.9617 27.455 30.0833 30.0834 30.0833C32.7117 30.0833 34.8334 27.9617 34.8334 25.3333C34.8334 22.705 32.7117 20.5833 30.0834 20.5833ZM30.0834 26.9167C29.2125 26.9167 28.5 26.2042 28.5 25.3333C28.5 24.4625 29.2125 23.75 30.0834 23.75C30.9542 23.75 31.6667 24.4625 31.6667 25.3333C31.6667 26.2042 30.9542 26.9167 30.0834 26.9167Z" fill="white"/>
</svg>
