<svg width="25" height="25" viewBox="0 0 25 25" fill="none" xmlns="http://www.w3.org/2000/svg">
<path d="M19.7918 7.29171C19.7918 6.14587 18.8543 5.20837 17.7085 5.20837H14.5835V7.29171H17.7085V10.0521L14.0835 14.5834H10.4168V9.37504H6.25016C3.94808 9.37504 2.0835 11.2396 2.0835 13.5417V16.6667H4.16683C4.16683 18.3959 5.56266 19.7917 7.29183 19.7917C9.021 19.7917 10.4168 18.3959 10.4168 16.6667H15.0835L19.7918 10.7813V7.29171ZM4.16683 14.5834V13.5417C4.16683 12.3959 5.10433 11.4584 6.25016 11.4584H8.3335V14.5834H4.16683ZM7.29183 17.7084C6.71891 17.7084 6.25016 17.2396 6.25016 16.6667H8.3335C8.3335 17.2396 7.86475 17.7084 7.29183 17.7084Z" fill="white"/>
<path d="M5.20825 6.25H10.4166V8.33333H5.20825V6.25ZM19.7916 13.5417C18.0624 13.5417 16.6666 14.9375 16.6666 16.6667C16.6666 18.3958 18.0624 19.7917 19.7916 19.7917C21.5208 19.7917 22.9166 18.3958 22.9166 16.6667C22.9166 14.9375 21.5208 13.5417 19.7916 13.5417ZM19.7916 17.7083C19.2187 17.7083 18.7499 17.2396 18.7499 16.6667C18.7499 16.0938 19.2187 15.625 19.7916 15.625C20.3645 15.625 20.8333 16.0938 20.8333 16.6667C20.8333 17.2396 20.3645 17.7083 19.7916 17.7083Z" fill="white"/>
</svg>
