<svg width="24" height="24" viewBox="0 0 24 24" fill="none" xmlns="http://www.w3.org/2000/svg">
<path d="M4.22222 12H2L12 2L22 12H19.7778" stroke="white" stroke-width="2.22222" stroke-linecap="round" stroke-linejoin="round"/>
<path d="M4.22217 12V19.7778C4.22217 20.3671 4.45629 20.9324 4.87304 21.3491C5.28979 21.7659 5.85502 22 6.44439 22H17.5555C18.1449 22 18.7101 21.7659 19.1268 21.3491C19.5436 20.9324 19.7777 20.3671 19.7777 19.7778V12" stroke="white" stroke-width="2.22222" stroke-linecap="round" stroke-linejoin="round"/>
<path d="M8.66663 22V15.3333C8.66663 14.7439 8.90075 14.1787 9.3175 13.762C9.73425 13.3452 10.2995 13.1111 10.8888 13.1111H13.1111C13.7004 13.1111 14.2657 13.3452 14.6824 13.762C15.0992 14.1787 15.3333 14.7439 15.3333 15.3333V22" stroke="white" stroke-width="2.22222" stroke-linecap="round" stroke-linejoin="round"/>
</svg>
