<svg width="44" height="28" viewBox="0 0 44 28" fill="none" xmlns="http://www.w3.org/2000/svg">
<path d="M25.792 16.436C25.792 17.036 25.642 17.6 25.342 18.128C25.054 18.656 24.622 19.1 24.046 19.46C23.482 19.82 22.81 20.036 22.03 20.108V21.566H20.86V20.108C19.732 20 18.82 19.646 18.124 19.046C17.428 18.446 17.08 17.654 17.08 16.67H19.276C19.312 17.138 19.462 17.528 19.726 17.84C19.99 18.14 20.368 18.332 20.86 18.416V14.456C20.056 14.252 19.402 14.048 18.898 13.844C18.394 13.628 17.962 13.292 17.602 12.836C17.254 12.38 17.08 11.756 17.08 10.964C17.08 9.968 17.428 9.146 18.124 8.498C18.82 7.838 19.732 7.454 20.86 7.346V5.888H22.03V7.346C23.086 7.442 23.932 7.778 24.568 8.354C25.216 8.918 25.582 9.698 25.666 10.694H23.47C23.434 10.322 23.29 9.992 23.038 9.704C22.786 9.404 22.45 9.2 22.03 9.092V12.98C22.834 13.172 23.488 13.376 23.992 13.592C24.496 13.796 24.922 14.126 25.27 14.582C25.618 15.026 25.792 15.644 25.792 16.436ZM19.168 10.856C19.168 11.348 19.312 11.732 19.6 12.008C19.9 12.284 20.32 12.506 20.86 12.674V9.038C20.344 9.098 19.93 9.284 19.618 9.596C19.318 9.908 19.168 10.328 19.168 10.856ZM22.03 18.416C22.558 18.332 22.972 18.122 23.272 17.786C23.572 17.438 23.722 17.024 23.722 16.544C23.722 16.064 23.572 15.692 23.272 15.428C22.984 15.152 22.57 14.93 22.03 14.762V18.416Z" fill="#FF9314"/>
<rect x="0.5" y="0.5" width="43" height="27" rx="4.5" stroke="#FF9314"/>
</svg>
