<svg width="20" height="18" viewBox="0 0 20 18" fill="none" xmlns="http://www.w3.org/2000/svg">
<path d="M4.42 14.7298C2.19 13.2698 0.75 11.0698 0.75 9.1398C0.75 5.8598 4.89 1.8398 10 1.8398C12.09 1.8398 14.03 2.5098 15.59 3.5498" stroke="#7D7D7D" stroke-width="1.5" stroke-linecap="round" stroke-linejoin="round"/>
<path d="M17.8497 5.6102C18.7407 6.7402 19.2597 7.9902 19.2597 9.1402C19.2597 12.4202 15.1097 16.4402 9.99969 16.4402C9.08969 16.4402 8.20069 16.3102 7.36969 16.0802" stroke="#7D7D7D" stroke-width="1.5" stroke-linecap="round" stroke-linejoin="round"/>
<path d="M7.76572 11.367C7.17072 10.778 6.83772 9.975 6.84072 9.138C6.83672 7.393 8.24872 5.975 9.99472 5.972C10.8347 5.97 11.6407 6.303 12.2347 6.897" stroke="#7D7D7D" stroke-width="1.5" stroke-linecap="round" stroke-linejoin="round"/>
<path d="M13.1095 9.6991C12.8755 10.9911 11.8645 12.0041 10.5725 12.2411" stroke="#7D7D7D" stroke-width="1.5" stroke-linecap="round" stroke-linejoin="round"/>
<path d="M17.8917 1.2499L2.11768 17.0239" stroke="#7D7D7D" stroke-width="1.5" stroke-linecap="round" stroke-linejoin="round"/>
</svg>
